<svg width="35" height="32" viewBox="0 0 35 32" fill="none" xmlns="http://www.w3.org/2000/svg">
<path fill-rule="evenodd" clip-rule="evenodd" d="M11.623 0H24.373C30.2402 0 34.998 4.41803 34.998 9.86607V21.7054C34.998 27.1534 30.2402 31.5714 24.373 31.5714H11.623C5.75592 31.5714 0.998047 27.1534 0.998047 21.7054V9.86607C0.998047 4.41803 5.75592 0 11.623 0ZM24.373 28.6118C28.4743 28.6118 31.8105 25.5139 31.8105 21.7056V9.86631C31.8105 6.058 28.4743 2.96006 24.373 2.96006H11.623C7.5218 2.96006 4.18555 6.058 4.18555 9.86631V21.7056C4.18555 25.5139 7.5218 28.6118 11.623 28.6118H24.373Z" fill="#1E2833"/>
<path fill-rule="evenodd" clip-rule="evenodd" d="M9.49805 15.7854C9.49805 11.4266 13.3039 7.89258 17.998 7.89258C22.6922 7.89258 26.498 11.4266 26.498 15.7854C26.498 20.1443 22.6922 23.6783 17.998 23.6783C13.3039 23.6783 9.49805 20.1443 9.49805 15.7854ZM12.6855 15.7861C12.6855 18.5052 15.0698 20.7191 17.998 20.7191C20.9263 20.7191 23.3105 18.5052 23.3105 15.7861C23.3105 13.065 20.9263 10.8531 17.998 10.8531C15.0698 10.8531 12.6855 13.065 12.6855 15.7861Z" fill="#1E2833"/>
<ellipse cx="27.1365" cy="7.30075" rx="1.13262" ry="1.05172" fill="#1E2833"/>
</svg>
