<svg width="56" height="56" viewBox="0 0 56 56" fill="none" xmlns="http://www.w3.org/2000/svg">
<g clip-path="url(#clip0_914_592)">
<path fill-rule="evenodd" clip-rule="evenodd" d="M25.3944 1.53858L22.9286 3.01469L22.9303 5.99049L22.9322 8.96628L24.9693 10.1317L27.0066 11.297L26.9499 12.4887L26.8933 13.6804L23.0253 15.9538L19.1573 18.2274L19.1054 22.8374L19.0538 27.4475L18.0417 28.0031L17.0299 28.5588L16.0145 27.9503L14.9991 27.342V28.5898C14.9991 29.7943 15.0195 29.8462 15.5863 30.0846L16.1733 30.3315L16.1182 32.118L16.0629 33.9042L14.5661 34.7614L13.0696 35.6184L11.6193 34.7652L10.169 33.9119L10.1665 32.1374C10.1641 30.3859 10.1715 30.3584 10.7258 30.0259C11.0348 29.8405 11.3344 29.6888 11.3917 29.6888C11.4489 29.6888 11.5224 30.0449 11.5553 30.4802C11.6098 31.2074 11.697 31.3193 12.63 31.8591L13.6453 32.4466L13.6519 23.751L13.6587 15.0554L17.5253 12.8181C19.6522 11.5875 21.432 10.5149 21.481 10.4345C21.5299 10.3544 21.1141 10.048 20.5569 9.75394L19.5441 9.21947L15.5794 11.5516L11.6146 13.8839L11.5179 20.5515L11.4212 27.219L9.72899 28.1997L8.03674 29.1803L8.03732 32.1355L8.0381 35.0904L10.515 36.5145C11.8773 37.2978 13.0568 37.9386 13.1361 37.9386C13.2156 37.9386 14.3634 37.2994 15.6871 36.5182L18.0936 35.0981L18.0941 32.7371L18.0949 30.3763L19.1352 29.8063L20.1757 29.2365L21.5038 29.9893C22.2343 30.4036 23.9861 31.4283 25.3967 32.2669L27.9618 33.7913L31.8476 31.5126L35.7334 29.2337L36.7762 29.8051L37.819 30.3763L37.8198 31.5057C37.82 32.127 37.8728 32.6352 37.937 32.6352C38.001 32.6352 38.4797 32.392 39.0005 32.095C39.824 31.6252 39.9474 31.4735 39.9476 30.9302C39.9478 30.3563 40.0654 30.2398 41.3979 29.4926L42.8482 28.6796L44.2989 29.5179L45.7498 30.3563V32.1441V33.9319L44.3072 34.7656L42.8646 35.5992L42.1338 35.2183L41.4031 34.8376L42.1259 34.4045C42.831 33.982 42.8488 33.9427 42.8488 32.8121C42.8488 32.1747 42.8051 31.653 42.7517 31.653C42.6983 31.653 39.5558 33.4713 35.7682 35.6936C31.9809 37.916 28.6845 39.8256 28.4432 39.9371C28.0629 40.1133 27.486 39.837 24.1075 37.861C21.9643 36.6072 20.1693 35.5815 20.119 35.5815C20.0688 35.5815 20.0276 36.0989 20.0276 36.7313V37.8812L24.0222 40.2178C26.2195 41.503 28.1026 42.5284 28.2074 42.4961C28.385 42.4419 34.1906 39.0644 37.7492 36.9454L39.3217 36.0089L41.0039 36.9851C41.9292 37.5221 42.7956 37.934 42.9294 37.9008C43.0633 37.8676 44.2312 37.2216 45.5249 36.4654L47.8768 35.0904L47.877 32.1327L47.8772 29.1748L45.4709 27.7623C44.1477 26.9853 42.9509 26.3506 42.8116 26.3518C42.6726 26.353 41.7319 26.8482 40.7214 27.4524L38.8841 28.5508L37.8687 27.9972L36.8534 27.4437L36.8468 22.8209L36.84 18.1981L32.9788 15.9638L29.1174 13.7297V12.4815V11.233L30.0921 10.6677C31.0641 10.1038 31.0657 10.1014 30.624 9.80893C29.3378 8.95725 28.9505 8.84136 28.4666 9.16349C28.0316 9.45282 27.9357 9.42473 26.5805 8.61194L25.1527 7.75534V5.93824V4.12114L26.6032 3.327L28.0537 2.53267L29.4558 3.36039C30.8172 4.16376 30.858 4.21012 30.858 4.95338V5.71903L30.1844 5.39278C29.5305 5.07595 29.4844 5.08105 28.6213 5.56307C28.1322 5.8363 27.7282 6.13643 27.7233 6.22993C27.7187 6.32342 30.9676 8.31475 34.9434 10.6551L42.1719 14.9102L42.2237 19.6357L42.2753 24.3611L43.3358 23.7425L44.396 23.1242L44.3894 18.4022L44.383 13.6804L38.7325 10.4023L33.0821 7.12404L32.9854 5.02291L32.8887 2.92198L30.4712 1.48338C29.1415 0.692 28.0101 0.0487174 27.957 0.0534315C27.9038 0.0583421 26.7505 0.72657 25.3944 1.53858ZM32.1158 19.8689C32.2176 20.0362 28.7698 22.1998 28.1306 22.3695C27.6589 22.4949 23.6178 20.0712 23.8704 19.8147C23.9776 19.7059 24.9498 19.1089 26.0309 18.4882L27.9964 17.3596L30.0049 18.5301C31.1096 19.1738 32.0594 19.7762 32.1158 19.8689ZM25.1043 22.6074L27.1834 23.8323V26.3677C27.1834 27.7621 27.1358 28.9031 27.0776 28.9031C26.9376 28.9031 23.9447 27.1687 23.267 26.6948L22.7352 26.3229V23.7712C22.7352 22.3678 22.8005 21.2562 22.8802 21.301C22.9599 21.3458 23.9609 21.9337 25.1043 22.6074ZM33.1788 23.8492V26.4557L31.0686 27.6794C29.9078 28.3524 28.9069 28.9031 28.8445 28.9031C28.7818 28.9031 28.7306 27.7659 28.7306 26.3758V23.8486L30.9063 22.5554C32.1031 21.8441 33.1039 21.2578 33.1304 21.2525C33.1569 21.247 33.1788 22.4155 33.1788 23.8492ZM0.494133 47.1665C0.494133 47.7003 0.121838 53.3817 0.027265 54.2907C-0.0410053 54.9471 -0.00174484 55.0273 0.386796 55.0273C0.798545 55.0273 0.830069 54.9263 0.948624 53.2292C1.01786 52.2404 1.07549 50.8482 1.07704 50.1356C1.08188 47.7318 1.26135 47.7141 1.9632 50.0486C3.7566 56.0147 3.82468 56.0697 5.07965 52.572C5.54497 51.2756 6.06677 49.7068 6.23928 49.0855C6.41179 48.4642 6.62163 47.9561 6.70537 47.9561C6.78931 47.9561 6.85584 48.5937 6.85352 49.3729C6.85101 50.1521 6.90999 51.7431 6.98426 52.9085C7.115 54.9558 7.13472 55.0273 7.56929 55.0273C7.96209 55.0273 8.01025 54.9466 7.94894 54.3889C7.91045 54.0377 7.82516 52.7341 7.75979 51.4917C7.69423 50.2493 7.58863 48.6756 7.52501 47.9946C7.40935 46.7581 7.40839 46.7563 6.82819 46.8161C6.28009 46.8724 6.2064 46.9887 5.5266 48.8728C5.13032 49.9712 4.64199 51.4516 4.44143 52.1629C4.24088 52.8741 4.0322 53.4547 3.97766 53.4536C3.92331 53.4522 3.40616 51.9495 2.82867 50.1144L1.77889 46.7776H1.13642C0.625259 46.7776 0.494133 46.8569 0.494133 47.1665ZM9.77734 50.9024V55.0273H11.9047C13.9032 55.0273 14.0321 55.0035 14.0321 54.6344C14.0321 54.2724 13.9032 54.2416 12.3882 54.2416H10.7443V52.6702V51.0988H12.2915C13.7098 51.0988 13.8387 51.066 13.8387 50.706C13.8387 50.346 13.7098 50.3132 12.2915 50.3132H10.7443V48.9382V47.5632H12.3882C13.9032 47.5632 14.0321 47.5324 14.0321 47.1704C14.0321 46.8013 13.9032 46.7776 11.9047 46.7776H9.77734V50.9024ZM18.4643 46.951C16.6175 47.3423 15.386 49.0048 15.386 51.1065C15.386 54 17.6882 55.4918 21.0429 54.7721L21.7682 54.6166V52.7596V50.9024H20.5111C19.383 50.9024 19.254 50.9427 19.254 51.2953C19.254 51.6227 19.383 51.6881 20.0276 51.6881H20.8012V52.8456C20.8012 54.1318 20.6967 54.2416 19.4725 54.2416C18.4204 54.2416 17.0966 53.4936 16.6918 52.6702C16.2872 51.8478 16.2522 50.3491 16.6167 49.4628C17.1962 48.0543 19.0217 47.2441 20.5457 47.7192C21.0891 47.8885 21.2315 47.8728 21.322 47.6336C21.3829 47.4723 21.3558 47.2635 21.262 47.1692C21.011 46.9178 19.2644 46.7815 18.4643 46.951ZM25.7267 47.0231C25.5638 47.4635 23.122 54.9161 23.122 54.9725C23.122 55.0027 23.3324 55.0273 23.5896 55.0273C23.9938 55.0273 24.1147 54.8527 24.4783 53.7427L24.8993 52.4579L26.3693 52.515L27.8396 52.572L28.2256 53.7996C28.5747 54.91 28.6621 55.0273 29.1396 55.0273H29.6676L28.312 50.9024C26.9571 46.7787 26.9565 46.7776 26.3869 46.7776C26.0738 46.7776 25.7766 46.8881 25.7267 47.0231ZM31.4382 47.1828C31.4382 47.798 31.0663 53.243 30.9593 54.1925C30.8727 54.9632 30.8999 55.0273 31.3161 55.0273C31.7464 55.0273 31.7728 54.945 31.8927 53.2292C31.9619 52.2404 32.0195 50.8482 32.0211 50.1356C32.0259 47.7318 32.2054 47.7141 32.9072 50.0486C34.7006 56.0147 34.7687 56.0697 36.0237 52.572C36.489 51.2756 37.0108 49.7068 37.1833 49.0855C37.3558 48.4642 37.5657 47.9561 37.6494 47.9561C37.7333 47.9561 37.7999 48.5937 37.7976 49.3729C37.795 50.1521 37.854 51.7431 37.9283 52.9085C38.059 54.9558 38.0788 55.0273 38.5133 55.0273C38.9061 55.0273 38.9543 54.9466 38.893 54.3889C38.8545 54.0377 38.7692 52.7341 38.7038 51.4917C38.6383 50.2493 38.5327 48.6756 38.469 47.9946C38.3534 46.7581 38.3524 46.7563 37.7722 46.8161C37.2241 46.8724 37.1504 46.9887 36.4706 48.8728C36.0744 49.9712 35.586 51.4516 35.3855 52.1629C35.1849 52.8741 34.9762 53.4547 34.9217 53.4536C34.8673 53.4522 34.3502 51.9495 33.7727 50.1144L32.7229 46.7776H32.0805C31.5606 46.7776 31.4382 46.8547 31.4382 47.1828ZM40.7214 50.9024V55.0273H41.2049H41.6884V50.9024V46.7776H41.2049H40.7214V50.9024ZM43.8158 50.9024V55.0273H44.3256H44.8356L44.7426 51.5899C44.6913 49.6993 44.7097 48.1525 44.7834 48.1525C44.857 48.1525 45.065 48.4841 45.2454 48.8891C45.4256 49.2943 46.2917 50.8189 47.1695 52.2774C48.5197 54.5203 48.8463 54.9387 49.2884 54.9911L49.8112 55.0534V50.9154V46.7776H49.2996H48.7881L48.8898 50.2149C48.9457 52.1055 48.96 53.6523 48.9217 53.6523C48.8834 53.6523 48.6663 53.2766 48.4394 52.8175C48.2124 52.3585 47.3274 50.8117 46.4725 49.3801C45.0624 47.019 44.8671 46.7776 44.367 46.7776H43.8158V50.9024ZM51.7452 50.9024V55.0273H53.8726C55.871 55.0273 56 55.0035 56 54.6344C56 54.2724 55.871 54.2416 54.3561 54.2416H52.7122V52.6702V51.0988H54.2594C55.6776 51.0988 55.8066 51.066 55.8066 50.706C55.8066 50.346 55.6776 50.3132 54.2594 50.3132H52.7122V48.9382V47.5632H54.3561C55.871 47.5632 56 47.5324 56 47.1704C56 46.8013 55.871 46.7776 53.8726 46.7776H51.7452V50.9024ZM26.8774 49.4318C27.1598 50.3515 27.4404 51.2354 27.5011 51.396C27.5918 51.6361 27.3878 51.6881 26.3566 51.6881H25.1016L25.6922 49.7239C26.0172 48.6436 26.3011 47.7597 26.3235 47.7597C26.3459 47.7597 26.5952 48.5122 26.8774 49.4318Z" fill="url(#paint0_linear_914_592)"/>
</g>
<defs>
<linearGradient id="paint0_linear_914_592" x1="28" y1="11.6731" x2="28" y2="72.8703" gradientUnits="userSpaceOnUse">
<stop offset="0.822066"/>
<stop offset="1" stop-color="white"/>
</linearGradient>
<clipPath id="clip0_914_592">
<rect width="56" height="56" fill="white"/>
</clipPath>
</defs>
</svg>
