<svg width="37" height="27" viewBox="0 0 37 27" fill="none" xmlns="http://www.w3.org/2000/svg">
<path d="M36.998 3.19638C35.6593 3.73846 34.2328 4.09777 32.7455 4.27223C34.2755 3.429 35.4433 2.10392 35.9923 0.506769C34.5658 1.29185 32.9908 1.84638 31.3123 2.15585C29.9578 0.824538 28.0273 0 25.9213 0C21.8353 0 18.5458 3.06139 18.5458 6.81438C18.5458 7.35438 18.5953 7.87361 18.7168 8.36792C12.581 8.09169 7.1518 5.37715 3.50455 1.242C2.8678 2.26177 2.4943 3.429 2.4943 4.68554C2.4943 7.04492 3.81055 9.13638 5.77255 10.3472C4.5868 10.3265 3.42355 10.0087 2.43805 9.50815C2.43805 9.52892 2.43805 9.55592 2.43805 9.58292C2.43805 12.8935 4.9963 15.6434 8.35105 16.2768C7.7503 16.4285 7.09555 16.5012 6.41605 16.5012C5.94355 16.5012 5.46655 16.4762 5.0188 16.3848C5.97505 19.0828 8.68855 21.0662 11.915 21.1306C9.40405 22.9438 6.2158 24.0362 2.7643 24.0362C2.15905 24.0362 1.57855 24.0113 0.998047 23.9428C4.2673 25.8888 8.1418 27 12.32 27C25.901 27 33.326 16.6154 33.326 7.614C33.326 7.31285 33.3148 7.02208 33.299 6.73338C34.7638 5.77385 35.9945 4.57546 36.998 3.19638Z" fill="#1E2833"/>
</svg>
